<svg width="1920" height="1080" viewBox="0 0 1920 1080" fill="none" xmlns="http://www.w3.org/2000/svg">
<g clip-path="url(#clip0_221_2401)">
<path d="M38.7641 -24.3528H-20.5869V35.0116H38.7641V-24.3528Z" stroke="#5690C6" stroke-width="0.630746"/>
<path d="M98.1147 -24.3528H38.7637V35.0116H98.1147V-24.3528Z" stroke="#5690C6" stroke-width="0.630746"/>
<path d="M157.466 -24.3528H98.1152V35.0116H157.466V-24.3528Z" stroke="#5690C6" stroke-width="0.630746"/>
<path d="M216.817 -24.3528H157.466V35.0116H216.817V-24.3528Z" stroke="#5690C6" stroke-width="0.630746"/>
<path d="M276.168 -24.3528H216.817V35.0116H276.168V-24.3528Z" stroke="#5690C6" stroke-width="0.630746"/>
<path d="M335.519 -24.3528H276.168V35.0116H335.519V-24.3528Z" stroke="#5690C6" stroke-width="0.630746"/>
<path d="M394.871 -24.3528H335.52V35.0116H394.871V-24.3528Z" stroke="#5690C6" stroke-width="0.630746"/>
<path d="M454.221 -24.3528H394.87V35.0116H454.221V-24.3528Z" stroke="#5690C6" stroke-width="0.630746"/>
<path d="M513.572 -24.3528H454.221V35.0116H513.572V-24.3528Z" stroke="#5690C6" stroke-width="0.630746"/>
<path d="M572.923 -24.3528H513.572V35.0116H572.923V-24.3528Z" stroke="#5690C6" stroke-width="0.630746"/>
<path d="M632.275 -24.3528H572.924V35.0116H632.275V-24.3528Z" stroke="#5690C6" stroke-width="0.630746"/>
<path d="M691.625 -24.3528H632.274V35.0116H691.625V-24.3528Z" stroke="#5690C6" stroke-width="0.630746"/>
<path d="M750.976 -24.3528H691.625V35.0116H750.976V-24.3528Z" stroke="#5690C6" stroke-width="0.630746"/>
<path d="M810.328 -24.3528H750.977V35.0116H810.328V-24.3528Z" stroke="#5690C6" stroke-width="0.630746"/>
<path d="M869.678 -24.3528H810.327V35.0116H869.678V-24.3528Z" stroke="#5690C6" stroke-width="0.630746"/>
<path d="M929.03 -24.3528H869.679V35.0116H929.03V-24.3528Z" stroke="#5690C6" stroke-width="0.630746"/>
<path d="M988.38 -24.3528H929.029V35.0116H988.38V-24.3528Z" stroke="#5690C6" stroke-width="0.630746"/>
<path d="M38.7641 35.0117H-20.5869V94.3761H38.7641V35.0117Z" stroke="#5690C6" stroke-width="0.630746"/>
<path d="M98.1147 35.0117H38.7637V94.3761H98.1147V35.0117Z" stroke="#5690C6" stroke-width="0.630746"/>
<path d="M157.466 35.0117H98.1152V94.3761H157.466V35.0117Z" stroke="#5690C6" stroke-width="0.630746"/>
<path d="M216.817 35.0117H157.466V94.3761H216.817V35.0117Z" stroke="#5690C6" stroke-width="0.630746"/>
<path d="M276.168 35.0117H216.817V94.3761H276.168V35.0117Z" stroke="#5690C6" stroke-width="0.630746"/>
<path d="M335.519 35.0117H276.168V94.3761H335.519V35.0117Z" stroke="#5690C6" stroke-width="0.630746"/>
<path d="M394.871 35.0117H335.52V94.3761H394.871V35.0117Z" stroke="#5690C6" stroke-width="0.630746"/>
<path d="M454.221 35.0117H394.87V94.3761H454.221V35.0117Z" stroke="#5690C6" stroke-width="0.630746"/>
<path d="M513.572 35.0117H454.221V94.3761H513.572V35.0117Z" stroke="#5690C6" stroke-width="0.630746"/>
<path d="M572.923 35.0117H513.572V94.3761H572.923V35.0117Z" stroke="#5690C6" stroke-width="0.630746"/>
<path d="M632.275 35.0117H572.924V94.3761H632.275V35.0117Z" stroke="#5690C6" stroke-width="0.630746"/>
<path d="M691.625 35.0117H632.274V94.3761H691.625V35.0117Z" stroke="#5690C6" stroke-width="0.630746"/>
<path d="M750.976 35.0117H691.625V94.3761H750.976V35.0117Z" stroke="#5690C6" stroke-width="0.630746"/>
<path d="M810.328 35.0117H750.977V94.3761H810.328V35.0117Z" stroke="#5690C6" stroke-width="0.630746"/>
<path d="M869.678 35.0117H810.327V94.3761H869.678V35.0117Z" stroke="#5690C6" stroke-width="0.630746"/>
<path d="M929.03 35.0117H869.679V94.3761H929.03V35.0117Z" stroke="#5690C6" stroke-width="0.630746"/>
<path d="M988.38 35.0117H929.029V94.3761H988.38V35.0117Z" stroke="#5690C6" stroke-width="0.630746"/>
<path d="M38.7641 94.376H-20.5869V153.74H38.7641V94.376Z" stroke="#5690C6" stroke-width="0.630746"/>
<path d="M98.1147 94.376H38.7637V153.74H98.1147V94.376Z" stroke="#5690C6" stroke-width="0.630746"/>
<path d="M157.466 94.376H98.1152V153.74H157.466V94.376Z" stroke="#5690C6" stroke-width="0.630746"/>
<path d="M216.817 94.376H157.466V153.74H216.817V94.376Z" stroke="#5690C6" stroke-width="0.630746"/>
<path d="M276.168 94.376H216.817V153.74H276.168V94.376Z" stroke="#5690C6" stroke-width="0.630746"/>
<path d="M335.519 94.376H276.168V153.74H335.519V94.376Z" stroke="#5690C6" stroke-width="0.630746"/>
<path d="M394.871 94.376H335.52V153.74H394.871V94.376Z" stroke="#5690C6" stroke-width="0.630746"/>
<path d="M454.221 94.376H394.87V153.74H454.221V94.376Z" stroke="#5690C6" stroke-width="0.630746"/>
<path d="M513.572 94.376H454.221V153.74H513.572V94.376Z" stroke="#5690C6" stroke-width="0.630746"/>
<path d="M572.923 94.376H513.572V153.74H572.923V94.376Z" stroke="#5690C6" stroke-width="0.630746"/>
<path d="M632.275 94.376H572.924V153.74H632.275V94.376Z" stroke="#5690C6" stroke-width="0.630746"/>
<path d="M691.625 94.376H632.274V153.74H691.625V94.376Z" stroke="#5690C6" stroke-width="0.630746"/>
<path d="M750.976 94.376H691.625V153.74H750.976V94.376Z" stroke="#5690C6" stroke-width="0.630746"/>
<path d="M810.328 94.376H750.977V153.74H810.328V94.376Z" stroke="#5690C6" stroke-width="0.630746"/>
<path d="M869.678 94.376H810.327V153.74H869.678V94.376Z" stroke="#5690C6" stroke-width="0.630746"/>
<path d="M929.03 94.376H869.679V153.74H929.03V94.376Z" stroke="#5690C6" stroke-width="0.630746"/>
<path d="M988.38 94.376H929.029V153.74H988.38V94.376Z" stroke="#5690C6" stroke-width="0.630746"/>
<path d="M38.7641 153.74H-20.5869V213.105H38.7641V153.74Z" stroke="#5690C6" stroke-width="0.630746"/>
<path d="M98.1147 153.74H38.7637V213.105H98.1147V153.74Z" stroke="#5690C6" stroke-width="0.630746"/>
<path d="M157.466 153.74H98.1152V213.105H157.466V153.74Z" stroke="#5690C6" stroke-width="0.630746"/>
<path d="M216.817 153.74H157.466V213.105H216.817V153.74Z" stroke="#5690C6" stroke-width="0.630746"/>
<path d="M276.168 153.74H216.817V213.105H276.168V153.74Z" stroke="#5690C6" stroke-width="0.630746"/>
<path d="M335.519 153.74H276.168V213.105H335.519V153.74Z" stroke="#5690C6" stroke-width="0.630746"/>
<path d="M394.871 153.74H335.52V213.105H394.871V153.74Z" stroke="#5690C6" stroke-width="0.630746"/>
<path d="M454.221 153.74H394.87V213.105H454.221V153.74Z" stroke="#5690C6" stroke-width="0.630746"/>
<path d="M513.572 153.74H454.221V213.105H513.572V153.74Z" stroke="#5690C6" stroke-width="0.630746"/>
<path d="M572.923 153.74H513.572V213.105H572.923V153.74Z" stroke="#5690C6" stroke-width="0.630746"/>
<path d="M632.275 153.74H572.924V213.105H632.275V153.74Z" stroke="#5690C6" stroke-width="0.630746"/>
<path d="M691.625 153.74H632.274V213.105H691.625V153.74Z" stroke="#5690C6" stroke-width="0.630746"/>
<path d="M750.976 153.74H691.625V213.105H750.976V153.74Z" stroke="#5690C6" stroke-width="0.630746"/>
<path d="M810.328 153.74H750.977V213.105H810.328V153.74Z" stroke="#5690C6" stroke-width="0.630746"/>
<path d="M869.678 153.74H810.327V213.105H869.678V153.74Z" stroke="#5690C6" stroke-width="0.630746"/>
<path d="M929.03 153.74H869.679V213.105H929.03V153.74Z" stroke="#5690C6" stroke-width="0.630746"/>
<path d="M988.38 153.74H929.029V213.105H988.38V153.74Z" stroke="#5690C6" stroke-width="0.630746"/>
<path d="M38.7641 213.105H-20.5869V272.469H38.7641V213.105Z" stroke="#5690C6" stroke-width="0.630746"/>
<path d="M98.1147 213.105H38.7637V272.469H98.1147V213.105Z" stroke="#5690C6" stroke-width="0.630746"/>
<path d="M157.466 213.105H98.1152V272.469H157.466V213.105Z" stroke="#5690C6" stroke-width="0.630746"/>
<path d="M216.817 213.105H157.466V272.469H216.817V213.105Z" stroke="#5690C6" stroke-width="0.630746"/>
<path d="M276.168 213.105H216.817V272.469H276.168V213.105Z" stroke="#5690C6" stroke-width="0.630746"/>
<path d="M335.519 213.105H276.168V272.469H335.519V213.105Z" stroke="#5690C6" stroke-width="0.630746"/>
<path d="M394.871 213.105H335.52V272.469H394.871V213.105Z" stroke="#5690C6" stroke-width="0.630746"/>
<path d="M454.221 213.105H394.87V272.469H454.221V213.105Z" stroke="#5690C6" stroke-width="0.630746"/>
<path d="M513.572 213.105H454.221V272.469H513.572V213.105Z" stroke="#5690C6" stroke-width="0.630746"/>
<path d="M572.923 213.105H513.572V272.469H572.923V213.105Z" stroke="#5690C6" stroke-width="0.630746"/>
<path d="M632.275 213.105H572.924V272.469H632.275V213.105Z" stroke="#5690C6" stroke-width="0.630746"/>
<path d="M691.625 213.105H632.274V272.469H691.625V213.105Z" stroke="#5690C6" stroke-width="0.630746"/>
<path d="M750.976 213.105H691.625V272.469H750.976V213.105Z" stroke="#5690C6" stroke-width="0.630746"/>
<path d="M810.328 213.105H750.977V272.469H810.328V213.105Z" stroke="#5690C6" stroke-width="0.630746"/>
<path d="M869.678 213.105H810.327V272.469H869.678V213.105Z" stroke="#5690C6" stroke-width="0.630746"/>
<path d="M929.03 213.105H869.679V272.469H929.03V213.105Z" stroke="#5690C6" stroke-width="0.630746"/>
<path d="M988.38 213.105H929.029V272.469H988.38V213.105Z" stroke="#5690C6" stroke-width="0.630746"/>
<path d="M38.7641 272.469H-20.5869V331.833H38.7641V272.469Z" stroke="#5690C6" stroke-width="0.630746"/>
<path d="M98.1147 272.469H38.7637V331.833H98.1147V272.469Z" stroke="#5690C6" stroke-width="0.630746"/>
<path d="M157.466 272.469H98.1152V331.833H157.466V272.469Z" stroke="#5690C6" stroke-width="0.630746"/>
<path d="M216.817 272.469H157.466V331.833H216.817V272.469Z" stroke="#5690C6" stroke-width="0.630746"/>
<path d="M276.168 272.469H216.817V331.833H276.168V272.469Z" stroke="#5690C6" stroke-width="0.630746"/>
<path d="M335.519 272.469H276.168V331.833H335.519V272.469Z" stroke="#5690C6" stroke-width="0.630746"/>
<path d="M394.871 272.469H335.52V331.833H394.871V272.469Z" stroke="#5690C6" stroke-width="0.630746"/>
<path d="M454.221 272.469H394.87V331.833H454.221V272.469Z" stroke="#5690C6" stroke-width="0.630746"/>
<path d="M513.572 272.469H454.221V331.833H513.572V272.469Z" stroke="#5690C6" stroke-width="0.630746"/>
<path d="M572.923 272.469H513.572V331.833H572.923V272.469Z" stroke="#5690C6" stroke-width="0.630746"/>
<path d="M632.275 272.469H572.924V331.833H632.275V272.469Z" stroke="#5690C6" stroke-width="0.630746"/>
<path d="M691.625 272.469H632.274V331.833H691.625V272.469Z" stroke="#5690C6" stroke-width="0.630746"/>
<path d="M750.976 272.469H691.625V331.833H750.976V272.469Z" stroke="#5690C6" stroke-width="0.630746"/>
<path d="M810.328 272.469H750.977V331.833H810.328V272.469Z" stroke="#5690C6" stroke-width="0.630746"/>
<path d="M869.678 272.469H810.327V331.833H869.678V272.469Z" stroke="#5690C6" stroke-width="0.630746"/>
<path d="M929.03 272.469H869.679V331.833H929.03V272.469Z" stroke="#5690C6" stroke-width="0.630746"/>
<path d="M988.38 272.469H929.029V331.833H988.38V272.469Z" stroke="#5690C6" stroke-width="0.630746"/>
<path d="M38.7641 331.833H-20.5869V391.198H38.7641V331.833Z" stroke="#5690C6" stroke-width="0.630746"/>
<path d="M98.1147 331.833H38.7637V391.198H98.1147V331.833Z" stroke="#5690C6" stroke-width="0.630746"/>
<path d="M157.466 331.833H98.1152V391.198H157.466V331.833Z" stroke="#5690C6" stroke-width="0.630746"/>
<path d="M216.817 331.833H157.466V391.198H216.817V331.833Z" stroke="#5690C6" stroke-width="0.630746"/>
<path d="M276.168 331.833H216.817V391.198H276.168V331.833Z" stroke="#5690C6" stroke-width="0.630746"/>
<path d="M335.519 331.833H276.168V391.198H335.519V331.833Z" stroke="#5690C6" stroke-width="0.630746"/>
<path d="M394.871 331.833H335.52V391.198H394.871V331.833Z" stroke="#5690C6" stroke-width="0.630746"/>
<path d="M454.221 331.833H394.87V391.198H454.221V331.833Z" stroke="#5690C6" stroke-width="0.630746"/>
<path d="M513.572 331.833H454.221V391.198H513.572V331.833Z" stroke="#5690C6" stroke-width="0.630746"/>
<path d="M572.923 331.833H513.572V391.198H572.923V331.833Z" stroke="#5690C6" stroke-width="0.630746"/>
<path d="M632.275 331.833H572.924V391.198H632.275V331.833Z" stroke="#5690C6" stroke-width="0.630746"/>
<path d="M691.625 331.833H632.274V391.198H691.625V331.833Z" stroke="#5690C6" stroke-width="0.630746"/>
<path d="M750.976 331.833H691.625V391.198H750.976V331.833Z" stroke="#5690C6" stroke-width="0.630746"/>
<path d="M810.328 331.833H750.977V391.198H810.328V331.833Z" stroke="#5690C6" stroke-width="0.630746"/>
<path d="M869.678 331.833H810.327V391.198H869.678V331.833Z" stroke="#5690C6" stroke-width="0.630746"/>
<path d="M929.03 331.833H869.679V391.198H929.03V331.833Z" stroke="#5690C6" stroke-width="0.630746"/>
<path d="M988.38 331.833H929.029V391.198H988.38V331.833Z" stroke="#5690C6" stroke-width="0.630746"/>
<path d="M38.7641 391.198H-20.5869V450.562H38.7641V391.198Z" stroke="#5690C6" stroke-width="0.630746"/>
<path d="M98.1147 391.198H38.7637V450.562H98.1147V391.198Z" stroke="#5690C6" stroke-width="0.630746"/>
<path d="M157.466 391.198H98.1152V450.562H157.466V391.198Z" stroke="#5690C6" stroke-width="0.630746"/>
<path d="M216.817 391.198H157.466V450.562H216.817V391.198Z" stroke="#5690C6" stroke-width="0.630746"/>
<path d="M276.168 391.198H216.817V450.562H276.168V391.198Z" stroke="#5690C6" stroke-width="0.630746"/>
<path d="M335.519 391.198H276.168V450.562H335.519V391.198Z" stroke="#5690C6" stroke-width="0.630746"/>
<path d="M394.871 391.198H335.52V450.562H394.871V391.198Z" stroke="#5690C6" stroke-width="0.630746"/>
<path d="M454.221 391.198H394.87V450.562H454.221V391.198Z" stroke="#5690C6" stroke-width="0.630746"/>
<path d="M513.572 391.198H454.221V450.562H513.572V391.198Z" stroke="#5690C6" stroke-width="0.630746"/>
<path d="M572.923 391.198H513.572V450.562H572.923V391.198Z" stroke="#5690C6" stroke-width="0.630746"/>
<path d="M632.275 391.198H572.924V450.562H632.275V391.198Z" stroke="#5690C6" stroke-width="0.630746"/>
<path d="M691.625 391.198H632.274V450.562H691.625V391.198Z" stroke="#5690C6" stroke-width="0.630746"/>
<path d="M750.976 391.198H691.625V450.562H750.976V391.198Z" stroke="#5690C6" stroke-width="0.630746"/>
<path d="M810.328 391.198H750.977V450.562H810.328V391.198Z" stroke="#5690C6" stroke-width="0.630746"/>
<path d="M869.678 391.198H810.327V450.562H869.678V391.198Z" stroke="#5690C6" stroke-width="0.630746"/>
<path d="M929.03 391.198H869.679V450.562H929.03V391.198Z" stroke="#5690C6" stroke-width="0.630746"/>
<path d="M988.38 391.198H929.029V450.562H988.38V391.198Z" stroke="#5690C6" stroke-width="0.630746"/>
<path d="M38.7641 450.562H-20.5869V509.926H38.7641V450.562Z" stroke="#5690C6" stroke-width="0.630746"/>
<path d="M98.1147 450.562H38.7637V509.926H98.1147V450.562Z" stroke="#5690C6" stroke-width="0.630746"/>
<path d="M157.466 450.562H98.1152V509.926H157.466V450.562Z" stroke="#5690C6" stroke-width="0.630746"/>
<path d="M216.817 450.562H157.466V509.926H216.817V450.562Z" stroke="#5690C6" stroke-width="0.630746"/>
<path d="M276.168 450.562H216.817V509.926H276.168V450.562Z" stroke="#5690C6" stroke-width="0.630746"/>
<path d="M335.519 450.562H276.168V509.926H335.519V450.562Z" stroke="#5690C6" stroke-width="0.630746"/>
<path d="M394.871 450.562H335.52V509.926H394.871V450.562Z" stroke="#5690C6" stroke-width="0.630746"/>
<path d="M454.221 450.562H394.87V509.926H454.221V450.562Z" stroke="#5690C6" stroke-width="0.630746"/>
<path d="M513.572 450.562H454.221V509.926H513.572V450.562Z" stroke="#5690C6" stroke-width="0.630746"/>
<path d="M572.923 450.562H513.572V509.926H572.923V450.562Z" stroke="#5690C6" stroke-width="0.630746"/>
<path d="M632.275 450.562H572.924V509.926H632.275V450.562Z" stroke="#5690C6" stroke-width="0.630746"/>
<path d="M691.625 450.562H632.274V509.926H691.625V450.562Z" stroke="#5690C6" stroke-width="0.630746"/>
<path d="M750.976 450.562H691.625V509.926H750.976V450.562Z" stroke="#5690C6" stroke-width="0.630746"/>
<path d="M810.328 450.562H750.977V509.926H810.328V450.562Z" stroke="#5690C6" stroke-width="0.630746"/>
<path d="M869.678 450.562H810.327V509.926H869.678V450.562Z" stroke="#5690C6" stroke-width="0.630746"/>
<path d="M929.03 450.562H869.679V509.926H929.03V450.562Z" stroke="#5690C6" stroke-width="0.630746"/>
<path d="M988.38 450.562H929.029V509.926H988.38V450.562Z" stroke="#5690C6" stroke-width="0.630746"/>
<path d="M38.7641 509.926H-20.5869V569.291H38.7641V509.926Z" stroke="#5690C6" stroke-width="0.630746"/>
<path d="M98.1147 509.926H38.7637V569.291H98.1147V509.926Z" stroke="#5690C6" stroke-width="0.630746"/>
<path d="M157.466 509.926H98.1152V569.291H157.466V509.926Z" stroke="#5690C6" stroke-width="0.630746"/>
<path d="M216.817 509.926H157.466V569.291H216.817V509.926Z" stroke="#5690C6" stroke-width="0.630746"/>
<path d="M276.168 509.926H216.817V569.291H276.168V509.926Z" stroke="#5690C6" stroke-width="0.630746"/>
<path d="M335.519 509.926H276.168V569.291H335.519V509.926Z" stroke="#5690C6" stroke-width="0.630746"/>
<path d="M394.871 509.926H335.52V569.291H394.871V509.926Z" stroke="#5690C6" stroke-width="0.630746"/>
<path d="M454.221 509.926H394.87V569.291H454.221V509.926Z" stroke="#5690C6" stroke-width="0.630746"/>
<path d="M513.572 509.926H454.221V569.291H513.572V509.926Z" stroke="#5690C6" stroke-width="0.630746"/>
<path d="M572.923 509.926H513.572V569.291H572.923V509.926Z" stroke="#5690C6" stroke-width="0.630746"/>
<path d="M632.275 509.926H572.924V569.291H632.275V509.926Z" stroke="#5690C6" stroke-width="0.630746"/>
<path d="M691.625 509.926H632.274V569.291H691.625V509.926Z" stroke="#5690C6" stroke-width="0.630746"/>
<path d="M750.976 509.926H691.625V569.291H750.976V509.926Z" stroke="#5690C6" stroke-width="0.630746"/>
<path d="M810.328 509.926H750.977V569.291H810.328V509.926Z" stroke="#5690C6" stroke-width="0.630746"/>
<path d="M869.678 509.926H810.327V569.291H869.678V509.926Z" stroke="#5690C6" stroke-width="0.630746"/>
<path d="M929.03 509.926H869.679V569.291H929.03V509.926Z" stroke="#5690C6" stroke-width="0.630746"/>
<path d="M988.38 509.926H929.029V569.291H988.38V509.926Z" stroke="#5690C6" stroke-width="0.630746"/>
<path d="M38.7641 569.291H-20.5869V628.655H38.7641V569.291Z" stroke="#5690C6" stroke-width="0.630746"/>
<path d="M98.1147 569.291H38.7637V628.655H98.1147V569.291Z" stroke="#5690C6" stroke-width="0.630746"/>
<path d="M157.466 569.291H98.1152V628.655H157.466V569.291Z" stroke="#5690C6" stroke-width="0.630746"/>
<path d="M216.817 569.291H157.466V628.655H216.817V569.291Z" stroke="#5690C6" stroke-width="0.630746"/>
<path d="M276.168 569.291H216.817V628.655H276.168V569.291Z" stroke="#5690C6" stroke-width="0.630746"/>
<path d="M335.519 569.291H276.168V628.655H335.519V569.291Z" stroke="#5690C6" stroke-width="0.630746"/>
<path d="M394.871 569.291H335.52V628.655H394.871V569.291Z" stroke="#5690C6" stroke-width="0.630746"/>
<path d="M454.221 569.291H394.87V628.655H454.221V569.291Z" stroke="#5690C6" stroke-width="0.630746"/>
<path d="M513.572 569.291H454.221V628.655H513.572V569.291Z" stroke="#5690C6" stroke-width="0.630746"/>
<path d="M572.923 569.291H513.572V628.655H572.923V569.291Z" stroke="#5690C6" stroke-width="0.630746"/>
<path d="M632.275 569.291H572.924V628.655H632.275V569.291Z" stroke="#5690C6" stroke-width="0.630746"/>
<path d="M691.625 569.291H632.274V628.655H691.625V569.291Z" stroke="#5690C6" stroke-width="0.630746"/>
<path d="M750.976 569.291H691.625V628.655H750.976V569.291Z" stroke="#5690C6" stroke-width="0.630746"/>
<path d="M810.328 569.291H750.977V628.655H810.328V569.291Z" stroke="#5690C6" stroke-width="0.630746"/>
<path d="M869.678 569.291H810.327V628.655H869.678V569.291Z" stroke="#5690C6" stroke-width="0.630746"/>
<path d="M929.03 569.291H869.679V628.655H929.03V569.291Z" stroke="#5690C6" stroke-width="0.630746"/>
<path d="M988.38 569.291H929.029V628.655H988.38V569.291Z" stroke="#5690C6" stroke-width="0.630746"/>
<path d="M38.7641 628.655H-20.5869V688.019H38.7641V628.655Z" stroke="#5690C6" stroke-width="0.630746"/>
<path d="M98.1147 628.655H38.7637V688.019H98.1147V628.655Z" stroke="#5690C6" stroke-width="0.630746"/>
<path d="M157.466 628.655H98.1152V688.019H157.466V628.655Z" stroke="#5690C6" stroke-width="0.630746"/>
<path d="M216.817 628.655H157.466V688.019H216.817V628.655Z" stroke="#5690C6" stroke-width="0.630746"/>
<path d="M276.168 628.655H216.817V688.019H276.168V628.655Z" stroke="#5690C6" stroke-width="0.630746"/>
<path d="M335.519 628.655H276.168V688.019H335.519V628.655Z" stroke="#5690C6" stroke-width="0.630746"/>
<path d="M394.871 628.655H335.52V688.019H394.871V628.655Z" stroke="#5690C6" stroke-width="0.630746"/>
<path d="M454.221 628.655H394.87V688.019H454.221V628.655Z" stroke="#5690C6" stroke-width="0.630746"/>
<path d="M513.572 628.655H454.221V688.019H513.572V628.655Z" stroke="#5690C6" stroke-width="0.630746"/>
<path d="M572.923 628.655H513.572V688.019H572.923V628.655Z" stroke="#5690C6" stroke-width="0.630746"/>
<path d="M632.275 628.655H572.924V688.019H632.275V628.655Z" stroke="#5690C6" stroke-width="0.630746"/>
<path d="M691.625 628.655H632.274V688.019H691.625V628.655Z" stroke="#5690C6" stroke-width="0.630746"/>
<path d="M750.976 628.655H691.625V688.019H750.976V628.655Z" stroke="#5690C6" stroke-width="0.630746"/>
<path d="M810.328 628.655H750.977V688.019H810.328V628.655Z" stroke="#5690C6" stroke-width="0.630746"/>
<path d="M869.678 628.655H810.327V688.019H869.678V628.655Z" stroke="#5690C6" stroke-width="0.630746"/>
<path d="M929.03 628.655H869.679V688.019H929.03V628.655Z" stroke="#5690C6" stroke-width="0.630746"/>
<path d="M988.38 628.655H929.029V688.019H988.38V628.655Z" stroke="#5690C6" stroke-width="0.630746"/>
<path d="M38.7641 688.019H-20.5869V747.384H38.7641V688.019Z" stroke="#5690C6" stroke-width="0.630746"/>
<path d="M98.1147 688.019H38.7637V747.384H98.1147V688.019Z" stroke="#5690C6" stroke-width="0.630746"/>
<path d="M157.466 688.019H98.1152V747.384H157.466V688.019Z" stroke="#5690C6" stroke-width="0.630746"/>
<path d="M216.817 688.019H157.466V747.384H216.817V688.019Z" stroke="#5690C6" stroke-width="0.630746"/>
<path d="M276.168 688.019H216.817V747.384H276.168V688.019Z" stroke="#5690C6" stroke-width="0.630746"/>
<path d="M335.519 688.019H276.168V747.384H335.519V688.019Z" stroke="#5690C6" stroke-width="0.630746"/>
<path d="M394.871 688.019H335.52V747.384H394.871V688.019Z" stroke="#5690C6" stroke-width="0.630746"/>
<path d="M454.221 688.019H394.87V747.384H454.221V688.019Z" stroke="#5690C6" stroke-width="0.630746"/>
<path d="M513.572 688.019H454.221V747.384H513.572V688.019Z" stroke="#5690C6" stroke-width="0.630746"/>
<path d="M572.923 688.019H513.572V747.384H572.923V688.019Z" stroke="#5690C6" stroke-width="0.630746"/>
<path d="M632.275 688.019H572.924V747.384H632.275V688.019Z" stroke="#5690C6" stroke-width="0.630746"/>
<path d="M691.625 688.019H632.274V747.384H691.625V688.019Z" stroke="#5690C6" stroke-width="0.630746"/>
<path d="M750.976 688.019H691.625V747.384H750.976V688.019Z" stroke="#5690C6" stroke-width="0.630746"/>
<path d="M810.328 688.019H750.977V747.384H810.328V688.019Z" stroke="#5690C6" stroke-width="0.630746"/>
<path d="M869.678 688.019H810.327V747.384H869.678V688.019Z" stroke="#5690C6" stroke-width="0.630746"/>
<path d="M929.03 688.019H869.679V747.384H929.03V688.019Z" stroke="#5690C6" stroke-width="0.630746"/>
<path d="M988.38 688.019H929.029V747.384H988.38V688.019Z" stroke="#5690C6" stroke-width="0.630746"/>
<path d="M38.7641 747.384H-20.5869V806.748H38.7641V747.384Z" stroke="#5690C6" stroke-width="0.630746"/>
<path d="M98.1147 747.384H38.7637V806.748H98.1147V747.384Z" stroke="#5690C6" stroke-width="0.630746"/>
<path d="M157.466 747.384H98.1152V806.748H157.466V747.384Z" stroke="#5690C6" stroke-width="0.630746"/>
<path d="M216.817 747.384H157.466V806.748H216.817V747.384Z" stroke="#5690C6" stroke-width="0.630746"/>
<path d="M276.168 747.384H216.817V806.748H276.168V747.384Z" stroke="#5690C6" stroke-width="0.630746"/>
<path d="M335.519 747.384H276.168V806.748H335.519V747.384Z" stroke="#5690C6" stroke-width="0.630746"/>
<path d="M394.871 747.384H335.52V806.748H394.871V747.384Z" stroke="#5690C6" stroke-width="0.630746"/>
<path d="M454.221 747.384H394.87V806.748H454.221V747.384Z" stroke="#5690C6" stroke-width="0.630746"/>
<path d="M513.572 747.384H454.221V806.748H513.572V747.384Z" stroke="#5690C6" stroke-width="0.630746"/>
<path d="M572.923 747.384H513.572V806.748H572.923V747.384Z" stroke="#5690C6" stroke-width="0.630746"/>
<path d="M632.275 747.384H572.924V806.748H632.275V747.384Z" stroke="#5690C6" stroke-width="0.630746"/>
<path d="M691.625 747.384H632.274V806.748H691.625V747.384Z" stroke="#5690C6" stroke-width="0.630746"/>
<path d="M750.976 747.384H691.625V806.748H750.976V747.384Z" stroke="#5690C6" stroke-width="0.630746"/>
<path d="M810.328 747.384H750.977V806.748H810.328V747.384Z" stroke="#5690C6" stroke-width="0.630746"/>
<path d="M869.678 747.384H810.327V806.748H869.678V747.384Z" stroke="#5690C6" stroke-width="0.630746"/>
<path d="M929.03 747.384H869.679V806.748H929.03V747.384Z" stroke="#5690C6" stroke-width="0.630746"/>
<path d="M988.38 747.384H929.029V806.748H988.38V747.384Z" stroke="#5690C6" stroke-width="0.630746"/>
<path d="M38.7641 806.748H-20.5869V866.112H38.7641V806.748Z" stroke="#5690C6" stroke-width="0.630746"/>
<path d="M98.1147 806.748H38.7637V866.112H98.1147V806.748Z" stroke="#5690C6" stroke-width="0.630746"/>
<path d="M157.466 806.748H98.1152V866.112H157.466V806.748Z" stroke="#5690C6" stroke-width="0.630746"/>
<path d="M216.817 806.748H157.466V866.112H216.817V806.748Z" stroke="#5690C6" stroke-width="0.630746"/>
<path d="M276.168 806.748H216.817V866.112H276.168V806.748Z" stroke="#5690C6" stroke-width="0.630746"/>
<path d="M335.519 806.748H276.168V866.112H335.519V806.748Z" stroke="#5690C6" stroke-width="0.630746"/>
<path d="M394.871 806.748H335.52V866.112H394.871V806.748Z" stroke="#5690C6" stroke-width="0.630746"/>
<path d="M454.221 806.748H394.87V866.112H454.221V806.748Z" stroke="#5690C6" stroke-width="0.630746"/>
<path d="M513.572 806.748H454.221V866.112H513.572V806.748Z" stroke="#5690C6" stroke-width="0.630746"/>
<path d="M572.923 806.748H513.572V866.112H572.923V806.748Z" stroke="#5690C6" stroke-width="0.630746"/>
<path d="M632.275 806.748H572.924V866.112H632.275V806.748Z" stroke="#5690C6" stroke-width="0.630746"/>
<path d="M691.625 806.748H632.274V866.112H691.625V806.748Z" stroke="#5690C6" stroke-width="0.630746"/>
<path d="M750.976 806.748H691.625V866.112H750.976V806.748Z" stroke="#5690C6" stroke-width="0.630746"/>
<path d="M810.328 806.748H750.977V866.112H810.328V806.748Z" stroke="#5690C6" stroke-width="0.630746"/>
<path d="M869.678 806.748H810.327V866.112H869.678V806.748Z" stroke="#5690C6" stroke-width="0.630746"/>
<path d="M929.03 806.748H869.679V866.112H929.03V806.748Z" stroke="#5690C6" stroke-width="0.630746"/>
<path d="M988.38 806.748H929.029V866.112H988.38V806.748Z" stroke="#5690C6" stroke-width="0.630746"/>
<path d="M38.7641 866.112H-20.5869V925.477H38.7641V866.112Z" stroke="#5690C6" stroke-width="0.630746"/>
<path d="M98.1147 866.112H38.7637V925.477H98.1147V866.112Z" stroke="#5690C6" stroke-width="0.630746"/>
<path d="M157.466 866.112H98.1152V925.477H157.466V866.112Z" stroke="#5690C6" stroke-width="0.630746"/>
<path d="M216.817 866.112H157.466V925.477H216.817V866.112Z" stroke="#5690C6" stroke-width="0.630746"/>
<path d="M276.168 866.112H216.817V925.477H276.168V866.112Z" stroke="#5690C6" stroke-width="0.630746"/>
<path d="M335.519 866.112H276.168V925.477H335.519V866.112Z" stroke="#5690C6" stroke-width="0.630746"/>
<path d="M394.871 866.112H335.52V925.477H394.871V866.112Z" stroke="#5690C6" stroke-width="0.630746"/>
<path d="M454.221 866.112H394.87V925.477H454.221V866.112Z" stroke="#5690C6" stroke-width="0.630746"/>
<path d="M513.572 866.112H454.221V925.477H513.572V866.112Z" stroke="#5690C6" stroke-width="0.630746"/>
<path d="M572.923 866.112H513.572V925.477H572.923V866.112Z" stroke="#5690C6" stroke-width="0.630746"/>
<path d="M632.275 866.112H572.924V925.477H632.275V866.112Z" stroke="#5690C6" stroke-width="0.630746"/>
<path d="M691.625 866.112H632.274V925.477H691.625V866.112Z" stroke="#5690C6" stroke-width="0.630746"/>
<path d="M750.976 866.112H691.625V925.477H750.976V866.112Z" stroke="#5690C6" stroke-width="0.630746"/>
<path d="M810.328 866.112H750.977V925.477H810.328V866.112Z" stroke="#5690C6" stroke-width="0.630746"/>
<path d="M869.678 866.112H810.327V925.477H869.678V866.112Z" stroke="#5690C6" stroke-width="0.630746"/>
<path d="M929.03 866.112H869.679V925.477H929.03V866.112Z" stroke="#5690C6" stroke-width="0.630746"/>
<path d="M988.38 866.112H929.029V925.477H988.38V866.112Z" stroke="#5690C6" stroke-width="0.630746"/>
<path d="M38.7641 925.477H-20.5869V984.841H38.7641V925.477Z" stroke="#5690C6" stroke-width="0.630746"/>
<path d="M98.1147 925.477H38.7637V984.841H98.1147V925.477Z" stroke="#5690C6" stroke-width="0.630746"/>
<path d="M157.466 925.477H98.1152V984.841H157.466V925.477Z" stroke="#5690C6" stroke-width="0.630746"/>
<path d="M216.817 925.477H157.466V984.841H216.817V925.477Z" stroke="#5690C6" stroke-width="0.630746"/>
<path d="M276.168 925.477H216.817V984.841H276.168V925.477Z" stroke="#5690C6" stroke-width="0.630746"/>
<path d="M335.519 925.477H276.168V984.841H335.519V925.477Z" stroke="#5690C6" stroke-width="0.630746"/>
<path d="M394.871 925.477H335.52V984.841H394.871V925.477Z" stroke="#5690C6" stroke-width="0.630746"/>
<path d="M454.221 925.477H394.87V984.841H454.221V925.477Z" stroke="#5690C6" stroke-width="0.630746"/>
<path d="M513.572 925.477H454.221V984.841H513.572V925.477Z" stroke="#5690C6" stroke-width="0.630746"/>
<path d="M572.923 925.477H513.572V984.841H572.923V925.477Z" stroke="#5690C6" stroke-width="0.630746"/>
<path d="M632.275 925.477H572.924V984.841H632.275V925.477Z" stroke="#5690C6" stroke-width="0.630746"/>
<path d="M691.625 925.477H632.274V984.841H691.625V925.477Z" stroke="#5690C6" stroke-width="0.630746"/>
<path d="M750.976 925.477H691.625V984.841H750.976V925.477Z" stroke="#5690C6" stroke-width="0.630746"/>
<path d="M810.328 925.477H750.977V984.841H810.328V925.477Z" stroke="#5690C6" stroke-width="0.630746"/>
<path d="M869.678 925.477H810.327V984.841H869.678V925.477Z" stroke="#5690C6" stroke-width="0.630746"/>
<path d="M929.03 925.477H869.679V984.841H929.03V925.477Z" stroke="#5690C6" stroke-width="0.630746"/>
<path d="M988.38 925.477H929.029V984.841H988.38V925.477Z" stroke="#5690C6" stroke-width="0.630746"/>
<path d="M38.7641 984.841H-20.5869V1044.21H38.7641V984.841Z" stroke="#5690C6" stroke-width="0.630746"/>
<path d="M98.1147 984.841H38.7637V1044.21H98.1147V984.841Z" stroke="#5690C6" stroke-width="0.630746"/>
<path d="M157.466 984.841H98.1152V1044.21H157.466V984.841Z" stroke="#5690C6" stroke-width="0.630746"/>
<path d="M216.817 984.841H157.466V1044.21H216.817V984.841Z" stroke="#5690C6" stroke-width="0.630746"/>
<path d="M276.168 984.841H216.817V1044.21H276.168V984.841Z" stroke="#5690C6" stroke-width="0.630746"/>
<path d="M335.519 984.841H276.168V1044.21H335.519V984.841Z" stroke="#5690C6" stroke-width="0.630746"/>
<path d="M394.871 984.841H335.52V1044.21H394.871V984.841Z" stroke="#5690C6" stroke-width="0.630746"/>
<path d="M454.221 984.841H394.87V1044.21H454.221V984.841Z" stroke="#5690C6" stroke-width="0.630746"/>
<path d="M513.572 984.841H454.221V1044.21H513.572V984.841Z" stroke="#5690C6" stroke-width="0.630746"/>
<path d="M572.923 984.841H513.572V1044.21H572.923V984.841Z" stroke="#5690C6" stroke-width="0.630746"/>
<path d="M632.275 984.841H572.924V1044.21H632.275V984.841Z" stroke="#5690C6" stroke-width="0.630746"/>
<path d="M691.625 984.841H632.274V1044.21H691.625V984.841Z" stroke="#5690C6" stroke-width="0.630746"/>
<path d="M750.976 984.841H691.625V1044.21H750.976V984.841Z" stroke="#5690C6" stroke-width="0.630746"/>
<path d="M810.328 984.841H750.977V1044.21H810.328V984.841Z" stroke="#5690C6" stroke-width="0.630746"/>
<path d="M869.678 984.841H810.327V1044.21H869.678V984.841Z" stroke="#5690C6" stroke-width="0.630746"/>
<path d="M929.03 984.841H869.679V1044.21H929.03V984.841Z" stroke="#5690C6" stroke-width="0.630746"/>
<path d="M988.38 984.841H929.029V1044.21H988.38V984.841Z" stroke="#5690C6" stroke-width="0.630746"/>
<path d="M38.7641 1044.21H-20.5869V1103.57H38.7641V1044.21Z" stroke="#5690C6" stroke-width="0.630746"/>
<path d="M98.1147 1044.21H38.7637V1103.57H98.1147V1044.21Z" stroke="#5690C6" stroke-width="0.630746"/>
<path d="M157.466 1044.21H98.1152V1103.57H157.466V1044.21Z" stroke="#5690C6" stroke-width="0.630746"/>
<path d="M216.817 1044.21H157.466V1103.57H216.817V1044.21Z" stroke="#5690C6" stroke-width="0.630746"/>
<path d="M276.168 1044.21H216.817V1103.57H276.168V1044.21Z" stroke="#5690C6" stroke-width="0.630746"/>
<path d="M335.519 1044.21H276.168V1103.57H335.519V1044.21Z" stroke="#5690C6" stroke-width="0.630746"/>
<path d="M394.871 1044.21H335.52V1103.57H394.871V1044.21Z" stroke="#5690C6" stroke-width="0.630746"/>
<path d="M454.221 1044.21H394.87V1103.57H454.221V1044.21Z" stroke="#5690C6" stroke-width="0.630746"/>
<path d="M513.572 1044.21H454.221V1103.57H513.572V1044.21Z" stroke="#5690C6" stroke-width="0.630746"/>
<path d="M572.923 1044.21H513.572V1103.57H572.923V1044.21Z" stroke="#5690C6" stroke-width="0.630746"/>
<path d="M632.275 1044.21H572.924V1103.57H632.275V1044.21Z" stroke="#5690C6" stroke-width="0.630746"/>
<path d="M691.625 1044.21H632.274V1103.57H691.625V1044.21Z" stroke="#5690C6" stroke-width="0.630746"/>
<path d="M750.976 1044.21H691.625V1103.57H750.976V1044.21Z" stroke="#5690C6" stroke-width="0.630746"/>
<path d="M810.328 1044.21H750.977V1103.57H810.328V1044.21Z" stroke="#5690C6" stroke-width="0.630746"/>
<path d="M869.678 1044.21H810.327V1103.57H869.678V1044.21Z" stroke="#5690C6" stroke-width="0.630746"/>
<path d="M929.03 1044.21H869.679V1103.57H929.03V1044.21Z" stroke="#5690C6" stroke-width="0.630746"/>
<path d="M988.38 1044.21H929.029V1103.57H988.38V1044.21Z" stroke="#5690C6" stroke-width="0.630746"/>
<path d="M988.175 -24.3529H928.824V35.0114H988.175V-24.3529Z" stroke="#5690C6" stroke-width="0.630746"/>
<path d="M1047.53 -24.3528H988.175V35.0116H1047.53V-24.3528Z" stroke="#5690C6" stroke-width="0.630746"/>
<path d="M1106.88 -24.3528H1047.53V35.0116H1106.88V-24.3528Z" stroke="#5690C6" stroke-width="0.630746"/>
<path d="M1166.23 -24.3528H1106.88V35.0116H1166.23V-24.3528Z" stroke="#5690C6" stroke-width="0.630746"/>
<path d="M1225.58 -24.3528H1166.23V35.0116H1225.58V-24.3528Z" stroke="#5690C6" stroke-width="0.630746"/>
<path d="M1284.93 -24.3528H1225.58V35.0116H1284.93V-24.3528Z" stroke="#5690C6" stroke-width="0.630746"/>
<path d="M1344.28 -24.3528H1284.93V35.0116H1344.28V-24.3528Z" stroke="#5690C6" stroke-width="0.630746"/>
<path d="M1403.63 -24.3528H1344.28V35.0116H1403.63V-24.3528Z" stroke="#5690C6" stroke-width="0.630746"/>
<path d="M1462.98 -24.3528H1403.63V35.0116H1462.98V-24.3528Z" stroke="#5690C6" stroke-width="0.630746"/>
<path d="M1522.33 -24.3528H1462.98V35.0116H1522.33V-24.3528Z" stroke="#5690C6" stroke-width="0.630746"/>
<path d="M1581.68 -24.3528H1522.33V35.0116H1581.68V-24.3528Z" stroke="#5690C6" stroke-width="0.630746"/>
<path d="M1641.04 -24.3528H1581.69V35.0116H1641.04V-24.3528Z" stroke="#5690C6" stroke-width="0.630746"/>
<path d="M1700.39 -24.3528H1641.04V35.0116H1700.39V-24.3528Z" stroke="#5690C6" stroke-width="0.630746"/>
<path d="M1759.74 -24.3528H1700.39V35.0116H1759.74V-24.3528Z" stroke="#5690C6" stroke-width="0.630746"/>
<path d="M1819.09 -24.3528H1759.74V35.0116H1819.09V-24.3528Z" stroke="#5690C6" stroke-width="0.630746"/>
<path d="M1878.44 -24.3528H1819.09V35.0116H1878.44V-24.3528Z" stroke="#5690C6" stroke-width="0.630746"/>
<path d="M1937.79 -24.3528H1878.44V35.0116H1937.79V-24.3528Z" stroke="#5690C6" stroke-width="0.630746"/>
<path d="M988.175 35.0117H928.824V94.3761H988.175V35.0117Z" stroke="#5690C6" stroke-width="0.630746"/>
<path d="M1047.53 35.0117H988.175V94.3761H1047.53V35.0117Z" stroke="#5690C6" stroke-width="0.630746"/>
<path d="M1106.88 35.0117H1047.53V94.3761H1106.88V35.0117Z" stroke="#5690C6" stroke-width="0.630746"/>
<path d="M1166.23 35.0117H1106.88V94.3761H1166.23V35.0117Z" stroke="#5690C6" stroke-width="0.630746"/>
<path d="M1225.58 35.0117H1166.23V94.3761H1225.58V35.0117Z" stroke="#5690C6" stroke-width="0.630746"/>
<path d="M1284.93 35.0117H1225.58V94.3761H1284.93V35.0117Z" stroke="#5690C6" stroke-width="0.630746"/>
<path d="M1344.28 35.0117H1284.93V94.3761H1344.28V35.0117Z" stroke="#5690C6" stroke-width="0.630746"/>
<path d="M1403.63 35.0117H1344.28V94.3761H1403.63V35.0117Z" stroke="#5690C6" stroke-width="0.630746"/>
<path d="M1462.98 35.0117H1403.63V94.3761H1462.98V35.0117Z" stroke="#5690C6" stroke-width="0.630746"/>
<path d="M1522.33 35.0117H1462.98V94.3761H1522.33V35.0117Z" stroke="#5690C6" stroke-width="0.630746"/>
<path d="M1581.68 35.0117H1522.33V94.3761H1581.68V35.0117Z" stroke="#5690C6" stroke-width="0.630746"/>
<path d="M1641.04 35.0117H1581.69V94.3761H1641.04V35.0117Z" stroke="#5690C6" stroke-width="0.630746"/>
<path d="M1700.39 35.0117H1641.04V94.3761H1700.39V35.0117Z" stroke="#5690C6" stroke-width="0.630746"/>
<path d="M1759.74 35.0117H1700.39V94.3761H1759.74V35.0117Z" stroke="#5690C6" stroke-width="0.630746"/>
<path d="M1819.09 35.0117H1759.74V94.3761H1819.09V35.0117Z" stroke="#5690C6" stroke-width="0.630746"/>
<path d="M1878.44 35.0117H1819.09V94.3761H1878.44V35.0117Z" stroke="#5690C6" stroke-width="0.630746"/>
<path d="M1937.79 35.0117H1878.44V94.3761H1937.79V35.0117Z" stroke="#5690C6" stroke-width="0.630746"/>
<path d="M988.175 94.376H928.824V153.74H988.175V94.376Z" stroke="#5690C6" stroke-width="0.630746"/>
<path d="M1047.53 94.376H988.175V153.74H1047.53V94.376Z" stroke="#5690C6" stroke-width="0.630746"/>
<path d="M1106.88 94.376H1047.53V153.74H1106.88V94.376Z" stroke="#5690C6" stroke-width="0.630746"/>
<path d="M1166.23 94.376H1106.88V153.74H1166.23V94.376Z" stroke="#5690C6" stroke-width="0.630746"/>
<path d="M1225.58 94.376H1166.23V153.74H1225.58V94.376Z" stroke="#5690C6" stroke-width="0.630746"/>
<path d="M1284.93 94.376H1225.58V153.74H1284.93V94.376Z" stroke="#5690C6" stroke-width="0.630746"/>
<path d="M1344.28 94.376H1284.93V153.74H1344.28V94.376Z" stroke="#5690C6" stroke-width="0.630746"/>
<path d="M1403.63 94.376H1344.28V153.74H1403.63V94.376Z" stroke="#5690C6" stroke-width="0.630746"/>
<path d="M1462.98 94.376H1403.63V153.74H1462.98V94.376Z" stroke="#5690C6" stroke-width="0.630746"/>
<path d="M1522.33 94.376H1462.98V153.74H1522.33V94.376Z" stroke="#5690C6" stroke-width="0.630746"/>
<path d="M1581.68 94.376H1522.33V153.74H1581.68V94.376Z" stroke="#5690C6" stroke-width="0.630746"/>
<path d="M1641.04 94.376H1581.69V153.74H1641.04V94.376Z" stroke="#5690C6" stroke-width="0.630746"/>
<path d="M1700.39 94.376H1641.04V153.74H1700.39V94.376Z" stroke="#5690C6" stroke-width="0.630746"/>
<path d="M1759.74 94.376H1700.39V153.74H1759.74V94.376Z" stroke="#5690C6" stroke-width="0.630746"/>
<path d="M1819.09 94.376H1759.74V153.74H1819.09V94.376Z" stroke="#5690C6" stroke-width="0.630746"/>
<path d="M1878.44 94.376H1819.09V153.74H1878.44V94.376Z" stroke="#5690C6" stroke-width="0.630746"/>
<path d="M1937.79 94.376H1878.44V153.74H1937.79V94.376Z" stroke="#5690C6" stroke-width="0.630746"/>
<path d="M988.175 153.74H928.824V213.105H988.175V153.74Z" stroke="#5690C6" stroke-width="0.630746"/>
<path d="M1047.53 153.74H988.175V213.105H1047.53V153.74Z" stroke="#5690C6" stroke-width="0.630746"/>
<path d="M1106.88 153.74H1047.53V213.105H1106.88V153.74Z" stroke="#5690C6" stroke-width="0.630746"/>
<path d="M1166.23 153.74H1106.88V213.105H1166.23V153.74Z" stroke="#5690C6" stroke-width="0.630746"/>
<path d="M1225.58 153.74H1166.23V213.105H1225.58V153.74Z" stroke="#5690C6" stroke-width="0.630746"/>
<path d="M1284.93 153.74H1225.58V213.105H1284.93V153.74Z" stroke="#5690C6" stroke-width="0.630746"/>
<path d="M1344.28 153.74H1284.93V213.105H1344.28V153.74Z" stroke="#5690C6" stroke-width="0.630746"/>
<path d="M1403.63 153.74H1344.28V213.105H1403.63V153.74Z" stroke="#5690C6" stroke-width="0.630746"/>
<path d="M1462.98 153.74H1403.63V213.105H1462.98V153.74Z" stroke="#5690C6" stroke-width="0.630746"/>
<path d="M1522.33 153.74H1462.98V213.105H1522.33V153.74Z" stroke="#5690C6" stroke-width="0.630746"/>
<path d="M1581.68 153.74H1522.33V213.105H1581.68V153.74Z" stroke="#5690C6" stroke-width="0.630746"/>
<path d="M1641.04 153.74H1581.69V213.105H1641.04V153.74Z" stroke="#5690C6" stroke-width="0.630746"/>
<path d="M1700.39 153.74H1641.04V213.105H1700.39V153.74Z" stroke="#5690C6" stroke-width="0.630746"/>
<path d="M1759.74 153.74H1700.39V213.105H1759.74V153.74Z" stroke="#5690C6" stroke-width="0.630746"/>
<path d="M1819.09 153.74H1759.74V213.105H1819.09V153.74Z" stroke="#5690C6" stroke-width="0.630746"/>
<path d="M1878.44 153.74H1819.09V213.105H1878.44V153.74Z" stroke="#5690C6" stroke-width="0.630746"/>
<path d="M1937.79 153.74H1878.44V213.105H1937.79V153.74Z" stroke="#5690C6" stroke-width="0.630746"/>
<path d="M988.175 213.105H928.824V272.469H988.175V213.105Z" stroke="#5690C6" stroke-width="0.630746"/>
<path d="M1047.53 213.105H988.175V272.469H1047.53V213.105Z" stroke="#5690C6" stroke-width="0.630746"/>
<path d="M1106.88 213.105H1047.53V272.469H1106.88V213.105Z" stroke="#5690C6" stroke-width="0.630746"/>
<path d="M1166.23 213.105H1106.88V272.469H1166.23V213.105Z" stroke="#5690C6" stroke-width="0.630746"/>
<path d="M1225.58 213.105H1166.23V272.469H1225.58V213.105Z" stroke="#5690C6" stroke-width="0.630746"/>
<path d="M1284.93 213.105H1225.58V272.469H1284.93V213.105Z" stroke="#5690C6" stroke-width="0.630746"/>
<path d="M1344.28 213.105H1284.93V272.469H1344.28V213.105Z" stroke="#5690C6" stroke-width="0.630746"/>
<path d="M1403.63 213.105H1344.28V272.469H1403.63V213.105Z" stroke="#5690C6" stroke-width="0.630746"/>
<path d="M1462.98 213.105H1403.63V272.469H1462.98V213.105Z" stroke="#5690C6" stroke-width="0.630746"/>
<path d="M1522.33 213.105H1462.98V272.469H1522.33V213.105Z" stroke="#5690C6" stroke-width="0.630746"/>
<path d="M1581.68 213.105H1522.33V272.469H1581.68V213.105Z" stroke="#5690C6" stroke-width="0.630746"/>
<path d="M1641.04 213.105H1581.69V272.469H1641.04V213.105Z" stroke="#5690C6" stroke-width="0.630746"/>
<path d="M1700.39 213.105H1641.04V272.469H1700.39V213.105Z" stroke="#5690C6" stroke-width="0.630746"/>
<path d="M1759.74 213.105H1700.39V272.469H1759.74V213.105Z" stroke="#5690C6" stroke-width="0.630746"/>
<path d="M1819.09 213.105H1759.74V272.469H1819.09V213.105Z" stroke="#5690C6" stroke-width="0.630746"/>
<path d="M1878.44 213.105H1819.09V272.469H1878.44V213.105Z" stroke="#5690C6" stroke-width="0.630746"/>
<path d="M1937.79 213.105H1878.44V272.469H1937.79V213.105Z" stroke="#5690C6" stroke-width="0.630746"/>
<path d="M988.175 272.469H928.824V331.833H988.175V272.469Z" stroke="#5690C6" stroke-width="0.630746"/>
<path d="M1047.53 272.469H988.175V331.833H1047.53V272.469Z" stroke="#5690C6" stroke-width="0.630746"/>
<path d="M1106.88 272.469H1047.53V331.833H1106.88V272.469Z" stroke="#5690C6" stroke-width="0.630746"/>
<path d="M1166.23 272.469H1106.88V331.833H1166.23V272.469Z" stroke="#5690C6" stroke-width="0.630746"/>
<path d="M1225.58 272.469H1166.23V331.833H1225.58V272.469Z" stroke="#5690C6" stroke-width="0.630746"/>
<path d="M1284.93 272.469H1225.58V331.833H1284.93V272.469Z" stroke="#5690C6" stroke-width="0.630746"/>
<path d="M1344.28 272.469H1284.93V331.833H1344.28V272.469Z" stroke="#5690C6" stroke-width="0.630746"/>
<path d="M1403.63 272.469H1344.28V331.833H1403.63V272.469Z" stroke="#5690C6" stroke-width="0.630746"/>
<path d="M1462.98 272.469H1403.63V331.833H1462.98V272.469Z" stroke="#5690C6" stroke-width="0.630746"/>
<path d="M1522.33 272.469H1462.98V331.833H1522.33V272.469Z" stroke="#5690C6" stroke-width="0.630746"/>
<path d="M1581.68 272.469H1522.33V331.833H1581.68V272.469Z" stroke="#5690C6" stroke-width="0.630746"/>
<path d="M1641.04 272.469H1581.69V331.833H1641.04V272.469Z" stroke="#5690C6" stroke-width="0.630746"/>
<path d="M1700.39 272.469H1641.04V331.833H1700.39V272.469Z" stroke="#5690C6" stroke-width="0.630746"/>
<path d="M1759.74 272.469H1700.39V331.833H1759.74V272.469Z" stroke="#5690C6" stroke-width="0.630746"/>
<path d="M1819.09 272.469H1759.74V331.833H1819.09V272.469Z" stroke="#5690C6" stroke-width="0.630746"/>
<path d="M1878.44 272.469H1819.09V331.833H1878.44V272.469Z" stroke="#5690C6" stroke-width="0.630746"/>
<path d="M1937.79 272.469H1878.44V331.833H1937.79V272.469Z" stroke="#5690C6" stroke-width="0.630746"/>
<path d="M988.175 331.833H928.824V391.198H988.175V331.833Z" stroke="#5690C6" stroke-width="0.630746"/>
<path d="M1047.53 331.833H988.175V391.198H1047.53V331.833Z" stroke="#5690C6" stroke-width="0.630746"/>
<path d="M1106.88 331.833H1047.53V391.198H1106.88V331.833Z" stroke="#5690C6" stroke-width="0.630746"/>
<path d="M1166.23 331.833H1106.88V391.198H1166.23V331.833Z" stroke="#5690C6" stroke-width="0.630746"/>
<path d="M1225.58 331.833H1166.23V391.198H1225.58V331.833Z" stroke="#5690C6" stroke-width="0.630746"/>
<path d="M1284.93 331.833H1225.58V391.198H1284.93V331.833Z" stroke="#5690C6" stroke-width="0.630746"/>
<path d="M1344.28 331.833H1284.93V391.198H1344.28V331.833Z" stroke="#5690C6" stroke-width="0.630746"/>
<path d="M1403.63 331.833H1344.28V391.198H1403.63V331.833Z" stroke="#5690C6" stroke-width="0.630746"/>
<path d="M1462.98 331.833H1403.63V391.198H1462.98V331.833Z" stroke="#5690C6" stroke-width="0.630746"/>
<path d="M1522.33 331.833H1462.98V391.198H1522.33V331.833Z" stroke="#5690C6" stroke-width="0.630746"/>
<path d="M1581.68 331.833H1522.33V391.198H1581.68V331.833Z" stroke="#5690C6" stroke-width="0.630746"/>
<path d="M1641.04 331.833H1581.69V391.198H1641.04V331.833Z" stroke="#5690C6" stroke-width="0.630746"/>
<path d="M1700.39 331.833H1641.04V391.198H1700.39V331.833Z" stroke="#5690C6" stroke-width="0.630746"/>
<path d="M1759.74 331.833H1700.39V391.198H1759.74V331.833Z" stroke="#5690C6" stroke-width="0.630746"/>
<path d="M1819.09 331.833H1759.74V391.198H1819.09V331.833Z" stroke="#5690C6" stroke-width="0.630746"/>
<path d="M1878.44 331.833H1819.09V391.198H1878.44V331.833Z" stroke="#5690C6" stroke-width="0.630746"/>
<path d="M1937.79 331.833H1878.44V391.198H1937.79V331.833Z" stroke="#5690C6" stroke-width="0.630746"/>
<path d="M988.175 391.198H928.824V450.562H988.175V391.198Z" stroke="#5690C6" stroke-width="0.630746"/>
<path d="M1047.53 391.198H988.175V450.562H1047.53V391.198Z" stroke="#5690C6" stroke-width="0.630746"/>
<path d="M1106.88 391.198H1047.53V450.562H1106.88V391.198Z" stroke="#5690C6" stroke-width="0.630746"/>
<path d="M1166.23 391.198H1106.88V450.562H1166.23V391.198Z" stroke="#5690C6" stroke-width="0.630746"/>
<path d="M1225.58 391.198H1166.23V450.562H1225.58V391.198Z" stroke="#5690C6" stroke-width="0.630746"/>
<path d="M1284.93 391.198H1225.58V450.562H1284.93V391.198Z" stroke="#5690C6" stroke-width="0.630746"/>
<path d="M1344.28 391.198H1284.93V450.562H1344.28V391.198Z" stroke="#5690C6" stroke-width="0.630746"/>
<path d="M1403.63 391.198H1344.28V450.562H1403.63V391.198Z" stroke="#5690C6" stroke-width="0.630746"/>
<path d="M1462.98 391.198H1403.63V450.562H1462.98V391.198Z" stroke="#5690C6" stroke-width="0.630746"/>
<path d="M1522.33 391.198H1462.98V450.562H1522.33V391.198Z" stroke="#5690C6" stroke-width="0.630746"/>
<path d="M1581.68 391.198H1522.33V450.562H1581.68V391.198Z" stroke="#5690C6" stroke-width="0.630746"/>
<path d="M1641.04 391.198H1581.69V450.562H1641.04V391.198Z" stroke="#5690C6" stroke-width="0.630746"/>
<path d="M1700.39 391.198H1641.04V450.562H1700.39V391.198Z" stroke="#5690C6" stroke-width="0.630746"/>
<path d="M1759.74 391.198H1700.39V450.562H1759.74V391.198Z" stroke="#5690C6" stroke-width="0.630746"/>
<path d="M1819.09 391.198H1759.74V450.562H1819.09V391.198Z" stroke="#5690C6" stroke-width="0.630746"/>
<path d="M1878.44 391.198H1819.09V450.562H1878.44V391.198Z" stroke="#5690C6" stroke-width="0.630746"/>
<path d="M1937.79 391.198H1878.44V450.562H1937.79V391.198Z" stroke="#5690C6" stroke-width="0.630746"/>
<path d="M988.175 450.562H928.824V509.926H988.175V450.562Z" stroke="#5690C6" stroke-width="0.630746"/>
<path d="M1047.53 450.562H988.175V509.926H1047.53V450.562Z" stroke="#5690C6" stroke-width="0.630746"/>
<path d="M1106.88 450.562H1047.53V509.926H1106.88V450.562Z" stroke="#5690C6" stroke-width="0.630746"/>
<path d="M1166.23 450.562H1106.88V509.926H1166.23V450.562Z" stroke="#5690C6" stroke-width="0.630746"/>
<path d="M1225.58 450.562H1166.23V509.926H1225.58V450.562Z" stroke="#5690C6" stroke-width="0.630746"/>
<path d="M1284.93 450.562H1225.58V509.926H1284.93V450.562Z" stroke="#5690C6" stroke-width="0.630746"/>
<path d="M1344.28 450.562H1284.93V509.926H1344.28V450.562Z" stroke="#5690C6" stroke-width="0.630746"/>
<path d="M1403.63 450.562H1344.28V509.926H1403.63V450.562Z" stroke="#5690C6" stroke-width="0.630746"/>
<path d="M1462.98 450.562H1403.63V509.926H1462.98V450.562Z" stroke="#5690C6" stroke-width="0.630746"/>
<path d="M1522.33 450.562H1462.98V509.926H1522.33V450.562Z" stroke="#5690C6" stroke-width="0.630746"/>
<path d="M1581.68 450.562H1522.33V509.926H1581.68V450.562Z" stroke="#5690C6" stroke-width="0.630746"/>
<path d="M1641.04 450.562H1581.69V509.926H1641.04V450.562Z" stroke="#5690C6" stroke-width="0.630746"/>
<path d="M1700.39 450.562H1641.04V509.926H1700.39V450.562Z" stroke="#5690C6" stroke-width="0.630746"/>
<path d="M1759.74 450.562H1700.39V509.926H1759.74V450.562Z" stroke="#5690C6" stroke-width="0.630746"/>
<path d="M1819.09 450.562H1759.74V509.926H1819.09V450.562Z" stroke="#5690C6" stroke-width="0.630746"/>
<path d="M1878.44 450.562H1819.09V509.926H1878.44V450.562Z" stroke="#5690C6" stroke-width="0.630746"/>
<path d="M1937.79 450.562H1878.44V509.926H1937.79V450.562Z" stroke="#5690C6" stroke-width="0.630746"/>
<path d="M988.175 509.926H928.824V569.291H988.175V509.926Z" stroke="#5690C6" stroke-width="0.630746"/>
<path d="M1047.53 509.926H988.175V569.291H1047.53V509.926Z" stroke="#5690C6" stroke-width="0.630746"/>
<path d="M1106.88 509.926H1047.53V569.291H1106.88V509.926Z" stroke="#5690C6" stroke-width="0.630746"/>
<path d="M1166.23 509.926H1106.88V569.291H1166.23V509.926Z" stroke="#5690C6" stroke-width="0.630746"/>
<path d="M1225.58 509.926H1166.23V569.291H1225.58V509.926Z" stroke="#5690C6" stroke-width="0.630746"/>
<path d="M1284.93 509.926H1225.58V569.291H1284.93V509.926Z" stroke="#5690C6" stroke-width="0.630746"/>
<path d="M1344.28 509.926H1284.93V569.291H1344.28V509.926Z" stroke="#5690C6" stroke-width="0.630746"/>
<path d="M1403.63 509.926H1344.28V569.291H1403.63V509.926Z" stroke="#5690C6" stroke-width="0.630746"/>
<path d="M1462.98 509.926H1403.63V569.291H1462.98V509.926Z" stroke="#5690C6" stroke-width="0.630746"/>
<path d="M1522.33 509.926H1462.98V569.291H1522.33V509.926Z" stroke="#5690C6" stroke-width="0.630746"/>
<path d="M1581.68 509.926H1522.33V569.291H1581.68V509.926Z" stroke="#5690C6" stroke-width="0.630746"/>
<path d="M1641.04 509.926H1581.69V569.291H1641.04V509.926Z" stroke="#5690C6" stroke-width="0.630746"/>
<path d="M1700.39 509.926H1641.04V569.291H1700.39V509.926Z" stroke="#5690C6" stroke-width="0.630746"/>
<path d="M1759.74 509.926H1700.39V569.291H1759.74V509.926Z" stroke="#5690C6" stroke-width="0.630746"/>
<path d="M1819.09 509.926H1759.74V569.291H1819.09V509.926Z" stroke="#5690C6" stroke-width="0.630746"/>
<path d="M1878.44 509.926H1819.09V569.291H1878.44V509.926Z" stroke="#5690C6" stroke-width="0.630746"/>
<path d="M1937.79 509.926H1878.44V569.291H1937.79V509.926Z" stroke="#5690C6" stroke-width="0.630746"/>
<path d="M988.175 569.291H928.824V628.655H988.175V569.291Z" stroke="#5690C6" stroke-width="0.630746"/>
<path d="M1047.53 569.291H988.175V628.655H1047.53V569.291Z" stroke="#5690C6" stroke-width="0.630746"/>
<path d="M1106.88 569.291H1047.53V628.655H1106.88V569.291Z" stroke="#5690C6" stroke-width="0.630746"/>
<path d="M1166.23 569.291H1106.88V628.655H1166.23V569.291Z" stroke="#5690C6" stroke-width="0.630746"/>
<path d="M1225.58 569.291H1166.23V628.655H1225.58V569.291Z" stroke="#5690C6" stroke-width="0.630746"/>
<path d="M1284.93 569.291H1225.58V628.655H1284.93V569.291Z" stroke="#5690C6" stroke-width="0.630746"/>
<path d="M1344.28 569.291H1284.93V628.655H1344.28V569.291Z" stroke="#5690C6" stroke-width="0.630746"/>
<path d="M1403.63 569.291H1344.28V628.655H1403.63V569.291Z" stroke="#5690C6" stroke-width="0.630746"/>
<path d="M1462.98 569.291H1403.63V628.655H1462.98V569.291Z" stroke="#5690C6" stroke-width="0.630746"/>
<path d="M1522.33 569.291H1462.98V628.655H1522.33V569.291Z" stroke="#5690C6" stroke-width="0.630746"/>
<path d="M1581.68 569.291H1522.33V628.655H1581.68V569.291Z" stroke="#5690C6" stroke-width="0.630746"/>
<path d="M1641.04 569.291H1581.69V628.655H1641.04V569.291Z" stroke="#5690C6" stroke-width="0.630746"/>
<path d="M1700.39 569.291H1641.04V628.655H1700.39V569.291Z" stroke="#5690C6" stroke-width="0.630746"/>
<path d="M1759.74 569.291H1700.39V628.655H1759.74V569.291Z" stroke="#5690C6" stroke-width="0.630746"/>
<path d="M1819.09 569.291H1759.74V628.655H1819.09V569.291Z" stroke="#5690C6" stroke-width="0.630746"/>
<path d="M1878.44 569.291H1819.09V628.655H1878.44V569.291Z" stroke="#5690C6" stroke-width="0.630746"/>
<path d="M1937.79 569.291H1878.44V628.655H1937.79V569.291Z" stroke="#5690C6" stroke-width="0.630746"/>
<path d="M988.175 628.655H928.824V688.019H988.175V628.655Z" stroke="#5690C6" stroke-width="0.630746"/>
<path d="M1047.53 628.655H988.175V688.019H1047.53V628.655Z" stroke="#5690C6" stroke-width="0.630746"/>
<path d="M1106.88 628.655H1047.53V688.019H1106.88V628.655Z" stroke="#5690C6" stroke-width="0.630746"/>
<path d="M1166.23 628.655H1106.88V688.019H1166.23V628.655Z" stroke="#5690C6" stroke-width="0.630746"/>
<path d="M1225.58 628.655H1166.23V688.019H1225.58V628.655Z" stroke="#5690C6" stroke-width="0.630746"/>
<path d="M1284.93 628.655H1225.58V688.019H1284.93V628.655Z" stroke="#5690C6" stroke-width="0.630746"/>
<path d="M1344.28 628.655H1284.93V688.019H1344.28V628.655Z" stroke="#5690C6" stroke-width="0.630746"/>
<path d="M1403.63 628.655H1344.28V688.019H1403.63V628.655Z" stroke="#5690C6" stroke-width="0.630746"/>
<path d="M1462.98 628.655H1403.63V688.019H1462.98V628.655Z" stroke="#5690C6" stroke-width="0.630746"/>
<path d="M1522.33 628.655H1462.98V688.019H1522.33V628.655Z" stroke="#5690C6" stroke-width="0.630746"/>
<path d="M1581.68 628.655H1522.33V688.019H1581.68V628.655Z" stroke="#5690C6" stroke-width="0.630746"/>
<path d="M1641.04 628.655H1581.69V688.019H1641.04V628.655Z" stroke="#5690C6" stroke-width="0.630746"/>
<path d="M1700.39 628.655H1641.04V688.019H1700.39V628.655Z" stroke="#5690C6" stroke-width="0.630746"/>
<path d="M1759.74 628.655H1700.39V688.019H1759.74V628.655Z" stroke="#5690C6" stroke-width="0.630746"/>
<path d="M1819.09 628.655H1759.74V688.019H1819.09V628.655Z" stroke="#5690C6" stroke-width="0.630746"/>
<path d="M1878.44 628.655H1819.09V688.019H1878.44V628.655Z" stroke="#5690C6" stroke-width="0.630746"/>
<path d="M1937.79 628.655H1878.44V688.019H1937.79V628.655Z" stroke="#5690C6" stroke-width="0.630746"/>
<path d="M988.175 688.019H928.824V747.384H988.175V688.019Z" stroke="#5690C6" stroke-width="0.630746"/>
<path d="M1047.53 688.019H988.175V747.384H1047.53V688.019Z" stroke="#5690C6" stroke-width="0.630746"/>
<path d="M1106.88 688.019H1047.53V747.384H1106.88V688.019Z" stroke="#5690C6" stroke-width="0.630746"/>
<path d="M1166.23 688.019H1106.88V747.384H1166.23V688.019Z" stroke="#5690C6" stroke-width="0.630746"/>
<path d="M1225.58 688.019H1166.23V747.384H1225.58V688.019Z" stroke="#5690C6" stroke-width="0.630746"/>
<path d="M1284.93 688.019H1225.58V747.384H1284.93V688.019Z" stroke="#5690C6" stroke-width="0.630746"/>
<path d="M1344.28 688.019H1284.93V747.384H1344.28V688.019Z" stroke="#5690C6" stroke-width="0.630746"/>
<path d="M1403.63 688.019H1344.28V747.384H1403.63V688.019Z" stroke="#5690C6" stroke-width="0.630746"/>
<path d="M1462.98 688.019H1403.63V747.384H1462.98V688.019Z" stroke="#5690C6" stroke-width="0.630746"/>
<path d="M1522.33 688.019H1462.98V747.384H1522.33V688.019Z" stroke="#5690C6" stroke-width="0.630746"/>
<path d="M1581.68 688.019H1522.33V747.384H1581.68V688.019Z" stroke="#5690C6" stroke-width="0.630746"/>
<path d="M1641.04 688.019H1581.69V747.384H1641.04V688.019Z" stroke="#5690C6" stroke-width="0.630746"/>
<path d="M1700.39 688.019H1641.04V747.384H1700.39V688.019Z" stroke="#5690C6" stroke-width="0.630746"/>
<path d="M1759.74 688.019H1700.39V747.384H1759.74V688.019Z" stroke="#5690C6" stroke-width="0.630746"/>
<path d="M1819.09 688.019H1759.74V747.384H1819.09V688.019Z" stroke="#5690C6" stroke-width="0.630746"/>
<path d="M1878.44 688.019H1819.09V747.384H1878.44V688.019Z" stroke="#5690C6" stroke-width="0.630746"/>
<path d="M1937.79 688.019H1878.44V747.384H1937.79V688.019Z" stroke="#5690C6" stroke-width="0.630746"/>
<path d="M988.175 747.384H928.824V806.748H988.175V747.384Z" stroke="#5690C6" stroke-width="0.630746"/>
<path d="M1047.53 747.384H988.175V806.748H1047.53V747.384Z" stroke="#5690C6" stroke-width="0.630746"/>
<path d="M1106.88 747.384H1047.53V806.748H1106.88V747.384Z" stroke="#5690C6" stroke-width="0.630746"/>
<path d="M1166.23 747.384H1106.88V806.748H1166.23V747.384Z" stroke="#5690C6" stroke-width="0.630746"/>
<path d="M1225.58 747.384H1166.23V806.748H1225.58V747.384Z" stroke="#5690C6" stroke-width="0.630746"/>
<path d="M1284.93 747.384H1225.58V806.748H1284.93V747.384Z" stroke="#5690C6" stroke-width="0.630746"/>
<path d="M1344.28 747.384H1284.93V806.748H1344.28V747.384Z" stroke="#5690C6" stroke-width="0.630746"/>
<path d="M1403.63 747.384H1344.28V806.748H1403.63V747.384Z" stroke="#5690C6" stroke-width="0.630746"/>
<path d="M1462.98 747.384H1403.63V806.748H1462.98V747.384Z" stroke="#5690C6" stroke-width="0.630746"/>
<path d="M1522.33 747.384H1462.98V806.748H1522.33V747.384Z" stroke="#5690C6" stroke-width="0.630746"/>
<path d="M1581.68 747.384H1522.33V806.748H1581.68V747.384Z" stroke="#5690C6" stroke-width="0.630746"/>
<path d="M1641.04 747.384H1581.69V806.748H1641.04V747.384Z" stroke="#5690C6" stroke-width="0.630746"/>
<path d="M1700.39 747.384H1641.04V806.748H1700.39V747.384Z" stroke="#5690C6" stroke-width="0.630746"/>
<path d="M1759.74 747.384H1700.39V806.748H1759.74V747.384Z" stroke="#5690C6" stroke-width="0.630746"/>
<path d="M1819.09 747.384H1759.74V806.748H1819.09V747.384Z" stroke="#5690C6" stroke-width="0.630746"/>
<path d="M1878.44 747.384H1819.09V806.748H1878.44V747.384Z" stroke="#5690C6" stroke-width="0.630746"/>
<path d="M1937.79 747.384H1878.44V806.748H1937.79V747.384Z" stroke="#5690C6" stroke-width="0.630746"/>
<path d="M988.175 806.748H928.824V866.112H988.175V806.748Z" stroke="#5690C6" stroke-width="0.630746"/>
<path d="M1047.53 806.748H988.175V866.112H1047.53V806.748Z" stroke="#5690C6" stroke-width="0.630746"/>
<path d="M1106.88 806.748H1047.53V866.112H1106.88V806.748Z" stroke="#5690C6" stroke-width="0.630746"/>
<path d="M1166.23 806.748H1106.88V866.112H1166.23V806.748Z" stroke="#5690C6" stroke-width="0.630746"/>
<path d="M1225.58 806.748H1166.23V866.112H1225.58V806.748Z" stroke="#5690C6" stroke-width="0.630746"/>
<path d="M1284.93 806.748H1225.58V866.112H1284.93V806.748Z" stroke="#5690C6" stroke-width="0.630746"/>
<path d="M1344.28 806.748H1284.93V866.112H1344.28V806.748Z" stroke="#5690C6" stroke-width="0.630746"/>
<path d="M1403.63 806.748H1344.28V866.112H1403.63V806.748Z" stroke="#5690C6" stroke-width="0.630746"/>
<path d="M1462.98 806.748H1403.63V866.112H1462.98V806.748Z" stroke="#5690C6" stroke-width="0.630746"/>
<path d="M1522.33 806.748H1462.98V866.112H1522.33V806.748Z" stroke="#5690C6" stroke-width="0.630746"/>
<path d="M1581.68 806.748H1522.33V866.112H1581.68V806.748Z" stroke="#5690C6" stroke-width="0.630746"/>
<path d="M1641.04 806.748H1581.69V866.112H1641.04V806.748Z" stroke="#5690C6" stroke-width="0.630746"/>
<path d="M1700.39 806.748H1641.04V866.112H1700.39V806.748Z" stroke="#5690C6" stroke-width="0.630746"/>
<path d="M1759.74 806.748H1700.39V866.112H1759.74V806.748Z" stroke="#5690C6" stroke-width="0.630746"/>
<path d="M1819.09 806.748H1759.74V866.112H1819.09V806.748Z" stroke="#5690C6" stroke-width="0.630746"/>
<path d="M1878.44 806.748H1819.09V866.112H1878.44V806.748Z" stroke="#5690C6" stroke-width="0.630746"/>
<path d="M1937.79 806.748H1878.44V866.112H1937.79V806.748Z" stroke="#5690C6" stroke-width="0.630746"/>
<path d="M988.175 866.112H928.824V925.477H988.175V866.112Z" stroke="#5690C6" stroke-width="0.630746"/>
<path d="M1047.53 866.112H988.175V925.477H1047.53V866.112Z" stroke="#5690C6" stroke-width="0.630746"/>
<path d="M1106.88 866.112H1047.53V925.477H1106.88V866.112Z" stroke="#5690C6" stroke-width="0.630746"/>
<path d="M1166.23 866.112H1106.88V925.477H1166.23V866.112Z" stroke="#5690C6" stroke-width="0.630746"/>
<path d="M1225.58 866.112H1166.23V925.477H1225.58V866.112Z" stroke="#5690C6" stroke-width="0.630746"/>
<path d="M1284.93 866.112H1225.58V925.477H1284.93V866.112Z" stroke="#5690C6" stroke-width="0.630746"/>
<path d="M1344.28 866.112H1284.93V925.477H1344.28V866.112Z" stroke="#5690C6" stroke-width="0.630746"/>
<path d="M1403.63 866.112H1344.28V925.477H1403.63V866.112Z" stroke="#5690C6" stroke-width="0.630746"/>
<path d="M1462.98 866.112H1403.63V925.477H1462.98V866.112Z" stroke="#5690C6" stroke-width="0.630746"/>
<path d="M1522.33 866.112H1462.98V925.477H1522.33V866.112Z" stroke="#5690C6" stroke-width="0.630746"/>
<path d="M1581.68 866.112H1522.33V925.477H1581.68V866.112Z" stroke="#5690C6" stroke-width="0.630746"/>
<path d="M1641.04 866.112H1581.69V925.477H1641.04V866.112Z" stroke="#5690C6" stroke-width="0.630746"/>
<path d="M1700.39 866.112H1641.04V925.477H1700.39V866.112Z" stroke="#5690C6" stroke-width="0.630746"/>
<path d="M1759.74 866.112H1700.39V925.477H1759.74V866.112Z" stroke="#5690C6" stroke-width="0.630746"/>
<path d="M1819.09 866.112H1759.74V925.477H1819.09V866.112Z" stroke="#5690C6" stroke-width="0.630746"/>
<path d="M1878.44 866.112H1819.09V925.477H1878.44V866.112Z" stroke="#5690C6" stroke-width="0.630746"/>
<path d="M1937.79 866.112H1878.44V925.477H1937.79V866.112Z" stroke="#5690C6" stroke-width="0.630746"/>
<path d="M988.175 925.477H928.824V984.841H988.175V925.477Z" stroke="#5690C6" stroke-width="0.630746"/>
<path d="M1047.53 925.477H988.175V984.841H1047.53V925.477Z" stroke="#5690C6" stroke-width="0.630746"/>
<path d="M1106.88 925.477H1047.53V984.841H1106.88V925.477Z" stroke="#5690C6" stroke-width="0.630746"/>
<path d="M1166.23 925.477H1106.88V984.841H1166.23V925.477Z" stroke="#5690C6" stroke-width="0.630746"/>
<path d="M1225.58 925.477H1166.23V984.841H1225.58V925.477Z" stroke="#5690C6" stroke-width="0.630746"/>
<path d="M1284.93 925.477H1225.58V984.841H1284.93V925.477Z" stroke="#5690C6" stroke-width="0.630746"/>
<path d="M1344.28 925.477H1284.93V984.841H1344.28V925.477Z" stroke="#5690C6" stroke-width="0.630746"/>
<path d="M1403.63 925.477H1344.28V984.841H1403.63V925.477Z" stroke="#5690C6" stroke-width="0.630746"/>
<path d="M1462.98 925.477H1403.63V984.841H1462.98V925.477Z" stroke="#5690C6" stroke-width="0.630746"/>
<path d="M1522.33 925.477H1462.98V984.841H1522.33V925.477Z" stroke="#5690C6" stroke-width="0.630746"/>
<path d="M1581.68 925.477H1522.33V984.841H1581.68V925.477Z" stroke="#5690C6" stroke-width="0.630746"/>
<path d="M1641.04 925.477H1581.69V984.841H1641.04V925.477Z" stroke="#5690C6" stroke-width="0.630746"/>
<path d="M1700.39 925.477H1641.04V984.841H1700.39V925.477Z" stroke="#5690C6" stroke-width="0.630746"/>
<path d="M1759.74 925.477H1700.39V984.841H1759.74V925.477Z" stroke="#5690C6" stroke-width="0.630746"/>
<path d="M1819.09 925.477H1759.74V984.841H1819.09V925.477Z" stroke="#5690C6" stroke-width="0.630746"/>
<path d="M1878.44 925.477H1819.09V984.841H1878.44V925.477Z" stroke="#5690C6" stroke-width="0.630746"/>
<path d="M1937.79 925.477H1878.44V984.841H1937.79V925.477Z" stroke="#5690C6" stroke-width="0.630746"/>
<path d="M988.175 984.841H928.824V1044.21H988.175V984.841Z" stroke="#5690C6" stroke-width="0.630746"/>
<path d="M1047.53 984.841H988.175V1044.21H1047.53V984.841Z" stroke="#5690C6" stroke-width="0.630746"/>
<path d="M1106.88 984.841H1047.53V1044.21H1106.88V984.841Z" stroke="#5690C6" stroke-width="0.630746"/>
<path d="M1166.23 984.841H1106.88V1044.21H1166.23V984.841Z" stroke="#5690C6" stroke-width="0.630746"/>
<path d="M1225.58 984.841H1166.23V1044.21H1225.58V984.841Z" stroke="#5690C6" stroke-width="0.630746"/>
<path d="M1284.93 984.841H1225.58V1044.21H1284.93V984.841Z" stroke="#5690C6" stroke-width="0.630746"/>
<path d="M1344.28 984.841H1284.93V1044.21H1344.28V984.841Z" stroke="#5690C6" stroke-width="0.630746"/>
<path d="M1403.63 984.841H1344.28V1044.21H1403.63V984.841Z" stroke="#5690C6" stroke-width="0.630746"/>
<path d="M1462.98 984.841H1403.63V1044.21H1462.98V984.841Z" stroke="#5690C6" stroke-width="0.630746"/>
<path d="M1522.33 984.841H1462.98V1044.21H1522.33V984.841Z" stroke="#5690C6" stroke-width="0.630746"/>
<path d="M1581.68 984.841H1522.33V1044.21H1581.68V984.841Z" stroke="#5690C6" stroke-width="0.630746"/>
<path d="M1641.04 984.841H1581.69V1044.21H1641.04V984.841Z" stroke="#5690C6" stroke-width="0.630746"/>
<path d="M1700.39 984.841H1641.04V1044.21H1700.39V984.841Z" stroke="#5690C6" stroke-width="0.630746"/>
<path d="M1759.74 984.841H1700.39V1044.21H1759.74V984.841Z" stroke="#5690C6" stroke-width="0.630746"/>
<path d="M1819.09 984.841H1759.74V1044.21H1819.09V984.841Z" stroke="#5690C6" stroke-width="0.630746"/>
<path d="M1878.44 984.841H1819.09V1044.21H1878.44V984.841Z" stroke="#5690C6" stroke-width="0.630746"/>
<path d="M1937.79 984.841H1878.44V1044.21H1937.79V984.841Z" stroke="#5690C6" stroke-width="0.630746"/>
<path d="M988.175 1044.21H928.824V1103.57H988.175V1044.21Z" stroke="#5690C6" stroke-width="0.630746"/>
<path d="M1047.53 1044.21H988.175V1103.57H1047.53V1044.21Z" stroke="#5690C6" stroke-width="0.630746"/>
<path d="M1106.88 1044.21H1047.53V1103.57H1106.88V1044.21Z" stroke="#5690C6" stroke-width="0.630746"/>
<path d="M1166.23 1044.21H1106.88V1103.57H1166.23V1044.21Z" stroke="#5690C6" stroke-width="0.630746"/>
<path d="M1225.58 1044.21H1166.23V1103.57H1225.58V1044.21Z" stroke="#5690C6" stroke-width="0.630746"/>
<path d="M1284.93 1044.21H1225.58V1103.57H1284.93V1044.21Z" stroke="#5690C6" stroke-width="0.630746"/>
<path d="M1344.28 1044.21H1284.93V1103.57H1344.28V1044.21Z" stroke="#5690C6" stroke-width="0.630746"/>
<path d="M1403.63 1044.21H1344.28V1103.57H1403.63V1044.21Z" stroke="#5690C6" stroke-width="0.630746"/>
<path d="M1462.98 1044.21H1403.63V1103.57H1462.98V1044.21Z" stroke="#5690C6" stroke-width="0.630746"/>
<path d="M1522.33 1044.21H1462.98V1103.57H1522.33V1044.21Z" stroke="#5690C6" stroke-width="0.630746"/>
<path d="M1581.68 1044.21H1522.33V1103.57H1581.68V1044.21Z" stroke="#5690C6" stroke-width="0.630746"/>
<path d="M1641.04 1044.21H1581.69V1103.57H1641.04V1044.21Z" stroke="#5690C6" stroke-width="0.630746"/>
<path d="M1700.39 1044.21H1641.04V1103.57H1700.39V1044.21Z" stroke="#5690C6" stroke-width="0.630746"/>
<path d="M1759.74 1044.21H1700.39V1103.57H1759.74V1044.21Z" stroke="#5690C6" stroke-width="0.630746"/>
<path d="M1819.09 1044.21H1759.74V1103.57H1819.09V1044.21Z" stroke="#5690C6" stroke-width="0.630746"/>
<path d="M1878.44 1044.21H1819.09V1103.57H1878.44V1044.21Z" stroke="#5690C6" stroke-width="0.630746"/>
<path d="M1937.79 1044.21H1878.44V1103.57H1937.79V1044.21Z" stroke="#5690C6" stroke-width="0.630746"/>
</g>
<defs>
<clipPath id="clip0_221_2401">
<rect width="2096" height="1080" fill="white" transform="translate(-116)"/>
</clipPath>
</defs>
</svg>
